<?xml version="1.0" encoding="UTF-8" standalone="no"?>
<!DOCTYPE svg PUBLIC "-//W3C//DTD SVG 1.1//EN" "http://www.w3.org/Graphics/SVG/1.1/DTD/svg11.dtd">
<!-- Generated by Microsoft Visio, SVG Export data-collection-direct-ingestion.svg Page-1 -->
<svg xmlns="http://www.w3.org/2000/svg" xmlns:xlink="http://www.w3.org/1999/xlink" xmlns:ev="http://www.w3.org/2001/xml-events"
		xmlns:v="http://schemas.microsoft.com/visio/2003/SVGExtensions/" width="7.8087in" height="3.24918in"
		viewBox="0 0 562.227 233.941" xml:space="preserve" color-interpolation-filters="sRGB" class="st33">
	<v:documentProperties v:langID="1033" v:viewMarkup="false"/>

	<style type="text/css">
	<![CDATA[
		.st1 {fill:#f2f2f2;stroke:#a5a5a5;stroke-linecap:round;stroke-linejoin:round;stroke-width:1.5}
		.st2 {fill:#000000;font-family:Segoe UI;font-size:1.16666em;font-weight:bold}
		.st3 {fill:url(#grad0-8);stroke:none;stroke-linecap:round;stroke-linejoin:round;stroke-width:0.24}
		.st4 {marker-end:url(#mrkr2-14);stroke:#83b9f9;stroke-width:3.5}
		.st5 {fill:#83b9f9;fill-opacity:1;stroke:#83b9f9;stroke-opacity:1;stroke-width:0.7085020242915}
		.st6 {fill:url(#grad0-18);stroke:none;stroke-linecap:round;stroke-linejoin:round;stroke-width:0.24}
		.st7 {fill:#ffffff;stroke:none;stroke-linecap:round;stroke-linejoin:round;stroke-width:0.24}
		.st8 {fill:none;stroke:#ffffff;stroke-linecap:round;stroke-linejoin:round;stroke-width:0.25}
		.st9 {stroke:#ffffff;stroke-width:1}
		.st10 {stroke:#ffffff;stroke-width:0.75}
		.st11 {fill:url(#grad0-34);stroke:none;stroke-linecap:butt;stroke-width:0.75}
		.st12 {fill:#9cebff;stroke:none;stroke-linecap:butt;stroke-width:0.75}
		.st13 {fill:#32bedd;stroke:none;stroke-linecap:butt;stroke-width:0.75}
		.st14 {fill:url(#grad0-42);stroke:none;stroke-linecap:butt;stroke-width:0.75}
		.st15 {fill:url(#grad0-47);stroke:none;stroke-linecap:butt;stroke-width:0.75}
		.st16 {fill:url(#grad0-51);stroke:none;stroke-linecap:butt;stroke-width:0.75}
		.st17 {marker-end:url(#mrkr5-57);stroke:#000000;stroke-linecap:round;stroke-linejoin:round;stroke-width:1.5}
		.st18 {fill:#000000;fill-opacity:1;stroke:#000000;stroke-opacity:1;stroke-width:0.37313432835821}
		.st19 {fill:none;stroke:none;stroke-linecap:round;stroke-linejoin:round;stroke-width:0.75}
		.st20 {fill:#000000;font-family:Calibri;font-size:1.00001em}
		.st21 {marker-end:url(#mrkr5-57);stroke:#000000;stroke-dasharray:1.5,3;stroke-linecap:round;stroke-linejoin:round;stroke-width:1.5}
		.st22 {fill:#000000;font-family:Calibri;font-size:0.75em}
		.st23 {fill:url(#grad0-76);stroke:#ffffff;stroke-linecap:butt;stroke-width:0.75}
		.st24 {fill:url(#grad0-87);stroke:none;stroke-linecap:butt;stroke-width:0.75}
		.st25 {fill:#e6e6e6}
		.st26 {stroke:none;stroke-linecap:butt;stroke-width:0.75}
		.st27 {fill:#50e6ff;stroke:none;stroke-linecap:butt;stroke-width:0.75}
		.st28 {fill:#198ab3;stroke:none;stroke-linecap:butt;stroke-width:0.75}
		.st29 {fill:url(#grad0-100);stroke:none;stroke-linecap:butt;stroke-width:0.75}
		.st30 {fill:url(#grad0-104);stroke:none;stroke-linecap:butt;stroke-width:0.75}
		.st31 {fill:#ffffff;stroke:none;stroke-linecap:butt;stroke-width:0.75}
		.st32 {font-size:1em}
		.st33 {fill:none;fill-rule:evenodd;font-size:12px;overflow:visible;stroke-linecap:square;stroke-miterlimit:3}
	]]>
	</style>

	<defs id="Patterns_And_Gradients">
		<linearGradient id="grad0-8" x1="0" y1="0" x2="1" y2="0" gradientTransform="rotate(90 0.5 0.5)">
			<stop offset="0" stop-color="#4d98ea" stop-opacity="1"/>
			<stop offset="1" stop-color="#0078d4" stop-opacity="1"/>
		</linearGradient>
		<linearGradient id="grad0-18" x1="0" y1="0" x2="1" y2="0" gradientTransform="rotate(90 0.5 0.5)">
			<stop offset="0" stop-color="#4be0fa" stop-opacity="1"/>
			<stop offset="1" stop-color="#3dcce9" stop-opacity="1"/>
		</linearGradient>
		<linearGradient id="grad0-34" x1="0" y1="0" x2="1" y2="0" gradientTransform="rotate(90 0.5 0.5)">
			<stop offset="0" stop-color="#32bedd" stop-opacity="1"/>
			<stop offset="0.065" stop-color="#3dcce9" stop-opacity="1"/>
			<stop offset="0.17" stop-color="#48dbf5" stop-opacity="1"/>
			<stop offset="0.295" stop-color="#4ee3fd" stop-opacity="1"/>
			<stop offset="0.49" stop-color="#50e6ff" stop-opacity="1"/>
			<stop offset="0.705" stop-color="#4ee4fd" stop-opacity="1"/>
			<stop offset="0.83" stop-color="#48dbf6" stop-opacity="1"/>
			<stop offset="0.93" stop-color="#3dcdea" stop-opacity="1"/>
			<stop offset="1" stop-color="#32bedd" stop-opacity="1"/>
		</linearGradient>
		<linearGradient id="grad0-42" x1="0" y1="0" x2="1" y2="0" gradientTransform="rotate(90 0.5 0.5)">
			<stop offset="0" stop-color="#198ab3" stop-opacity="1"/>
			<stop offset="0.025" stop-color="#1d92b9" stop-opacity="1"/>
			<stop offset="0.1" stop-color="#26a5c9" stop-opacity="1"/>
			<stop offset="0.19" stop-color="#2cb2d4" stop-opacity="1"/>
			<stop offset="0.305" stop-color="#30bada" stop-opacity="1"/>
			<stop offset="0.53" stop-color="#31bcdc" stop-opacity="1"/>
			<stop offset="0.655" stop-color="#2eb5d6" stop-opacity="1"/>
			<stop offset="0.84" stop-color="#24a1c6" stop-opacity="1"/>
			<stop offset="1" stop-color="#198ab3" stop-opacity="1"/>
		</linearGradient>
		<linearGradient id="grad0-47" x1="0" y1="0" x2="1" y2="0" gradientTransform="rotate(-90 0.5 0.5)">
			<stop offset="0" stop-color="#198ab3" stop-opacity="1"/>
			<stop offset="0.09" stop-color="#1f9dc4" stop-opacity="1"/>
			<stop offset="0.24" stop-color="#28b5d9" stop-opacity="1"/>
			<stop offset="0.4" stop-color="#2dc6e9" stop-opacity="1"/>
			<stop offset="0.57" stop-color="#31d1f2" stop-opacity="1"/>
			<stop offset="0.78" stop-color="#32d4f5" stop-opacity="1"/>
		</linearGradient>
		<linearGradient id="grad0-51" x1="0" y1="0" x2="1" y2="0" gradientTransform="rotate(90 0.5 0.5)">
			<stop offset="0" stop-color="#c69aeb" stop-opacity="1"/>
			<stop offset="1" stop-color="#6f4bb2" stop-opacity="1"/>
		</linearGradient>
		<linearGradient id="grad0-76" x1="0" y1="0" x2="1" y2="0" gradientTransform="rotate(90 0.5 0.5)">
			<stop offset="0" stop-color="#7cafed" stop-opacity="1"/>
			<stop offset="1" stop-color="#0066be" stop-opacity="1"/>
		</linearGradient>
		<linearGradient id="grad0-87" x1="0" y1="0" x2="1" y2="0" gradientTransform="rotate(0.12781289921392 0.5 0.5)">
			<stop offset="0" stop-color="#005ba1" stop-opacity="1"/>
			<stop offset="0.07" stop-color="#0060a9" stop-opacity="1"/>
			<stop offset="0.355" stop-color="#0071c8" stop-opacity="1"/>
			<stop offset="0.515" stop-color="#0078d4" stop-opacity="1"/>
			<stop offset="0.64" stop-color="#0074cd" stop-opacity="1"/>
			<stop offset="0.82" stop-color="#006abb" stop-opacity="1"/>
			<stop offset="1" stop-color="#005ba1" stop-opacity="1"/>
		</linearGradient>
		<linearGradient id="grad0-100" x1="0" y1="0" x2="1" y2="0" gradientTransform="rotate(-90 0.5 0.5)">
			<stop offset="0" stop-color="#1988d9" stop-opacity="1"/>
			<stop offset="0.9" stop-color="#54aef0" stop-opacity="1"/>
		</linearGradient>
		<linearGradient id="grad0-104" x1="0" y1="0" x2="1" y2="0" gradientTransform="rotate(-90 0.5 0.5)">
			<stop offset="0" stop-color="#198ab3" stop-opacity="1"/>
			<stop offset="0.01" stop-color="#198bb4" stop-opacity="1"/>
			<stop offset="0.44" stop-color="#27b2d7" stop-opacity="1"/>
			<stop offset="0.79" stop-color="#2fcbed" stop-opacity="1"/>
			<stop offset="1" stop-color="#32d4f5" stop-opacity="1"/>
		</linearGradient>
	</defs>
	<defs id="Markers">
		<g id="lend2">
			<path d="M 1 1 L 0 0 L 1 -1 L 1 1 " style="stroke:none"/>
		</g>
		<marker id="mrkr2-14" class="st5" v:arrowType="2" v:arrowSize="0" v:setback="1.41143" refX="-1.4114285714286" orient="auto"
				markerUnits="strokeWidth" overflow="visible">
			<use xlink:href="#lend2" transform="scale(-1.4114285714286,-1.4114285714286) "/>
		</marker>
		<g id="lend5">
			<path d="M 2 1 L 0 0 L 1.98117 -0.993387 C 1.67173 -0.364515 1.67301 0.372641 1.98465 1.00043 " style="stroke:none"/>
		</g>
		<marker id="mrkr5-57" class="st18" v:arrowType="5" v:arrowSize="2" v:setback="4.69" refX="-4.69" orient="auto"
				markerUnits="strokeWidth" overflow="visible">
			<use xlink:href="#lend5" transform="scale(-2.68,-2.68) "/>
		</marker>
	</defs>
	<g v:mID="0" v:index="1" v:groupContext="foregroundPage">
		<v:userDefs>
			<v:ud v:nameU="visNavType" v:val="VT0(1):26"/>
		</v:userDefs>
		<title>Page-1</title>
		<v:pageProperties v:drawingScale="0.0393701" v:pageScale="0.0393701" v:drawingUnits="24" v:shadowOffsetX="9"
				v:shadowOffsetY="-9"/>
		<v:layer v:name="Connector" v:index="0"/>
		<g id="shape4708-1" v:mID="4708" v:groupContext="shape" transform="translate(157.183,-0.75)">
			<title>Rounded Rectangle.4708</title>
			<desc>Azure Monitor</desc>
			<v:userDefs>
				<v:ud v:nameU="CTypeTopLeftSnip" v:prompt="" v:val="VT0(0):5"/>
				<v:ud v:nameU="CTypeTopRightSnip" v:prompt="" v:val="VT0(0):5"/>
				<v:ud v:nameU="CTypeBotLeftSnip" v:prompt="" v:val="VT0(0):5"/>
				<v:ud v:nameU="CTypeBotRightSnip" v:prompt="" v:val="VT0(0):5"/>
				<v:ud v:nameU="CornerLockHoriz" v:prompt="" v:val="VT0(1):5"/>
				<v:ud v:nameU="CornerLockVert" v:prompt="" v:val="VT0(1):5"/>
				<v:ud v:nameU="CornerLockDiag" v:prompt="" v:val="VT0(0):5"/>
				<v:ud v:nameU="TopLeftOffset" v:prompt="" v:val="VT0(0.15):1"/>
				<v:ud v:nameU="TopRightOffset" v:prompt="" v:val="VT0(0.15):1"/>
				<v:ud v:nameU="BotLeftOffset" v:prompt="" v:val="VT0(0.15):1"/>
				<v:ud v:nameU="BotRightOffset" v:prompt="" v:val="VT0(0.15):1"/>
				<v:ud v:nameU="visVersion" v:prompt="" v:val="VT0(15):26"/>
				<v:ud v:nameU="TopLeftOffset" v:prompt="" v:val="VT0(0.1517621420969):1"/>
				<v:ud v:nameU="TopRightOffset" v:prompt="" v:val="VT0(0.1517621420969):1"/>
				<v:ud v:nameU="BotLeftOffset" v:prompt="" v:val="VT0(0.1517621420969):1"/>
				<v:ud v:nameU="BotRightOffset" v:prompt="" v:val="VT0(0.1517621420969):1"/>
				<v:ud v:nameU="visNavOrder" v:prompt="" v:val="VT0(618000):26"/>
			</v:userDefs>
			<v:textBlock v:margins="rect(8,12,4,4)" v:tabSpace="42.5197" v:verticalAlign="0"/>
			<v:textRect cx="202.147" cy="117.72" width="404.3" height="232.441"/>
			<path d="M10.93 233.94 L393.37 233.94 A10.9267 10.9267 -180 0 0 404.29 223.01 L404.29 12.43 A10.9267 10.9267 -180 0 0
						 393.37 1.5 L10.93 1.5 A10.9267 10.9267 -180 0 0 -0 12.43 L0 223.01 A10.9267 10.9267 -180 0 0 10.93 233.94
						 Z" class="st1"/>
			<text x="296.28" y="22.1" class="st2" v:langID="1033"><v:paragraph v:indentLeft="11.34" v:horizAlign="2"/><v:tabList/>Azure Monitor</text>		</g>
		<g id="group4709-4" transform="translate(229.823,-166.514)" v:mID="4709" v:groupContext="group">
			<v:userDefs>
				<v:ud v:nameU="visNavOrder" v:val="VT0(617000):26"/>
			</v:userDefs>
			<title>Sheet.4709</title>
			<g id="shape4710-5" v:mID="4710" v:groupContext="shape" transform="translate(5.79289,2.84217E-14)">
				<title>Rounded Rectangle.20113</title>
				<v:userDefs>
					<v:ud v:nameU="CTypeTopLeftSnip" v:prompt="" v:val="VT0(0):5"/>
					<v:ud v:nameU="CTypeTopRightSnip" v:prompt="" v:val="VT0(0):5"/>
					<v:ud v:nameU="CTypeBotLeftSnip" v:prompt="" v:val="VT0(0):5"/>
					<v:ud v:nameU="CTypeBotRightSnip" v:prompt="" v:val="VT0(0):5"/>
					<v:ud v:nameU="CornerLockHoriz" v:prompt="" v:val="VT0(1):5"/>
					<v:ud v:nameU="CornerLockVert" v:prompt="" v:val="VT0(1):5"/>
					<v:ud v:nameU="CornerLockDiag" v:prompt="" v:val="VT0(0):5"/>
					<v:ud v:nameU="TopLeftOffset" v:prompt="" v:val="VT0(0.15):1"/>
					<v:ud v:nameU="TopRightOffset" v:prompt="" v:val="VT0(0.15):1"/>
					<v:ud v:nameU="BotLeftOffset" v:prompt="" v:val="VT0(0.15):1"/>
					<v:ud v:nameU="BotRightOffset" v:prompt="" v:val="VT0(0.15):1"/>
					<v:ud v:nameU="visVersion" v:prompt="" v:val="VT0(15):26"/>
					<v:ud v:nameU="TopLeftOffset" v:prompt="" v:val="VT0(0.02011284572413):1"/>
					<v:ud v:nameU="TopRightOffset" v:prompt="" v:val="VT0(0.02011284572413):1"/>
					<v:ud v:nameU="BotLeftOffset" v:prompt="" v:val="VT0(0.02011284572413):1"/>
					<v:ud v:nameU="BotRightOffset" v:prompt="" v:val="VT0(0.02011284572413):1"/>
				</v:userDefs>
				<path d="M1.45 233.94 L36.21 233.94 A1.4481 1.4481 -180 0 0 37.65 232.49 L37.65 194.22 A1.4481 1.4481 -180 0 0 36.21
							 192.78 L1.45 192.78 A1.4481 1.4481 -180 0 0 0 194.22 L0 232.49 A1.4481 1.4481 -180 0 0 1.45 233.94 Z"
						class="st3"/>
			</g>
			<g id="shape4711-9" v:mID="4711" v:groupContext="shape" transform="translate(8.15576,-10.7606)">
				<title>Sheet.4711</title>
				<path d="M0 233.94 L27.45 233.94" class="st4"/>
			</g>
			<g id="shape4712-15" v:mID="4712" v:groupContext="shape" transform="translate(2.15827E-13,-20.5827)">
				<title>Rounded Rectangle.20114</title>
				<v:userDefs>
					<v:ud v:nameU="CTypeTopLeftSnip" v:prompt="" v:val="VT0(0):5"/>
					<v:ud v:nameU="CTypeTopRightSnip" v:prompt="" v:val="VT0(0):5"/>
					<v:ud v:nameU="CTypeBotLeftSnip" v:prompt="" v:val="VT0(0):5"/>
					<v:ud v:nameU="CTypeBotRightSnip" v:prompt="" v:val="VT0(0):5"/>
					<v:ud v:nameU="CornerLockHoriz" v:prompt="" v:val="VT0(1):5"/>
					<v:ud v:nameU="CornerLockVert" v:prompt="" v:val="VT0(1):5"/>
					<v:ud v:nameU="CornerLockDiag" v:prompt="" v:val="VT0(0):5"/>
					<v:ud v:nameU="TopLeftOffset" v:prompt="" v:val="VT0(0.15):1"/>
					<v:ud v:nameU="TopRightOffset" v:prompt="" v:val="VT0(0.15):1"/>
					<v:ud v:nameU="BotLeftOffset" v:prompt="" v:val="VT0(0.15):1"/>
					<v:ud v:nameU="BotRightOffset" v:prompt="" v:val="VT0(0.15):1"/>
					<v:ud v:nameU="visVersion" v:prompt="" v:val="VT0(15):26"/>
					<v:ud v:nameU="TopLeftOffset" v:prompt="" v:val="VT0(0.019339274435036):1"/>
					<v:ud v:nameU="TopRightOffset" v:prompt="" v:val="VT0(0.019339274435036):1"/>
					<v:ud v:nameU="BotLeftOffset" v:prompt="" v:val="VT0(0.019339274435036):1"/>
					<v:ud v:nameU="BotRightOffset" v:prompt="" v:val="VT0(0.019339274435036):1"/>
				</v:userDefs>
				<path d="M1.39 233.94 L34.81 233.94 A1.3924 1.3924 -180 0 0 36.21 232.55 L36.21 219.86 A1.3924 1.3924 -180 0 0 34.81
							 218.46 L1.39 218.46 A1.3924 1.3924 -180 0 0 0 219.86 L0 232.55 A1.3924 1.3924 -180 0 0 1.39 233.94 Z"
						class="st6"/>
			</g>
			<g id="shape4713-19" v:mID="4713" v:groupContext="shape" transform="translate(3.62064,-29.1366)">
				<title>Rounded Rectangle.20115</title>
				<v:userDefs>
					<v:ud v:nameU="CTypeTopLeftSnip" v:prompt="" v:val="VT0(0):5"/>
					<v:ud v:nameU="CTypeTopRightSnip" v:prompt="" v:val="VT0(0):5"/>
					<v:ud v:nameU="CTypeBotLeftSnip" v:prompt="" v:val="VT0(0):5"/>
					<v:ud v:nameU="CTypeBotRightSnip" v:prompt="" v:val="VT0(0):5"/>
					<v:ud v:nameU="CornerLockHoriz" v:prompt="" v:val="VT0(1):5"/>
					<v:ud v:nameU="CornerLockVert" v:prompt="" v:val="VT0(1):5"/>
					<v:ud v:nameU="CornerLockDiag" v:prompt="" v:val="VT0(0):5"/>
					<v:ud v:nameU="TopLeftOffset" v:prompt="" v:val="VT0(0.15):1"/>
					<v:ud v:nameU="TopRightOffset" v:prompt="" v:val="VT0(0.15):1"/>
					<v:ud v:nameU="BotLeftOffset" v:prompt="" v:val="VT0(0.15):1"/>
					<v:ud v:nameU="BotRightOffset" v:prompt="" v:val="VT0(0.15):1"/>
					<v:ud v:nameU="visVersion" v:prompt="" v:val="VT0(15):26"/>
					<v:ud v:nameU="TopLeftOffset" v:prompt="" v:val="VT0(0.0023207129210797):1"/>
					<v:ud v:nameU="TopRightOffset" v:prompt="" v:val="VT0(0.0023207129210797):1"/>
					<v:ud v:nameU="BotLeftOffset" v:prompt="" v:val="VT0(0.0023207129210797):1"/>
					<v:ud v:nameU="BotRightOffset" v:prompt="" v:val="VT0(0.0023207129210797):1"/>
				</v:userDefs>
				<path d="M0.17 233.94 L4.18 233.94 a0.167089 0.167089 -180 0 0 0.167091 -0.167091 L4.34 229.98 a0.167089 0.167089
							 -180 0 0 -0.167091 -0.167091 L0.17 229.81 a0.167089 0.167089 -180 0 0 -0.167091 0.167091 L0 233.77 a0.167089
							 0.167089 -180 0 0 0.167091 0.167091 Z" class="st7"/>
			</g>
			<g id="shape4714-21" v:mID="4714" v:groupContext="shape" transform="translate(3.98269,-24.2217)">
				<title>Rounded Rectangle.20116</title>
				<v:userDefs>
					<v:ud v:nameU="CTypeTopLeftSnip" v:prompt="" v:val="VT0(0):5"/>
					<v:ud v:nameU="CTypeTopRightSnip" v:prompt="" v:val="VT0(0):5"/>
					<v:ud v:nameU="CTypeBotLeftSnip" v:prompt="" v:val="VT0(0):5"/>
					<v:ud v:nameU="CTypeBotRightSnip" v:prompt="" v:val="VT0(0):5"/>
					<v:ud v:nameU="CornerLockHoriz" v:prompt="" v:val="VT0(1):5"/>
					<v:ud v:nameU="CornerLockVert" v:prompt="" v:val="VT0(1):5"/>
					<v:ud v:nameU="CornerLockDiag" v:prompt="" v:val="VT0(0):5"/>
					<v:ud v:nameU="TopLeftOffset" v:prompt="" v:val="VT0(0.15):1"/>
					<v:ud v:nameU="TopRightOffset" v:prompt="" v:val="VT0(0.15):1"/>
					<v:ud v:nameU="BotLeftOffset" v:prompt="" v:val="VT0(0.15):1"/>
					<v:ud v:nameU="BotRightOffset" v:prompt="" v:val="VT0(0.15):1"/>
					<v:ud v:nameU="visVersion" v:prompt="" v:val="VT0(15):26"/>
					<v:ud v:nameU="TopLeftOffset" v:prompt="" v:val="VT0(0.0019339274342331):1"/>
					<v:ud v:nameU="TopRightOffset" v:prompt="" v:val="VT0(0.0019339274342331):1"/>
					<v:ud v:nameU="BotLeftOffset" v:prompt="" v:val="VT0(0.0019339274342331):1"/>
					<v:ud v:nameU="BotRightOffset" v:prompt="" v:val="VT0(0.0019339274342331):1"/>
				</v:userDefs>
				<path d="M0.14 233.94 L3.48 233.94 a0.13924 0.13924 -180 0 0 0.139243 -0.139243 L3.62 230.68 a0.13924 0.13924 -180
							 0 0 -0.139243 -0.139243 L0.14 230.54 a0.13924 0.13924 -180 0 0 -0.139243 0.139243 L0 233.8 a0.13924
							 0.13924 -180 0 0 0.139243 0.139243 Z" class="st8"/>
			</g>
			<g id="shape4715-23" v:mID="4715" v:groupContext="shape" transform="translate(9.77558,-30.9921)">
				<title>Sheet.4715</title>
				<path d="M0 233.94 L22.09 233.94" class="st9"/>
			</g>
			<g id="shape4716-26" v:mID="4716" v:groupContext="shape" transform="translate(9.79859,-25.9234)">
				<title>Sheet.4716</title>
				<path d="M0 233.94 L22.09 233.94" class="st10"/>
			</g>
		</g>
		<g id="group4718-29" transform="translate(178.442,-36.0347)" v:mID="4718" v:groupContext="group">
			<v:userDefs>
				<v:ud v:nameU="msvDisableCustomConnectionPoints" v:prompt="" v:val="VT0(1):5"/>
				<v:ud v:nameU="visNavOrder" v:val="VT0(622000):26"/>
			</v:userDefs>
			<title>Data Pipelines Menu.4718</title>
			<g id="group4719-30" v:mID="4719" v:groupContext="group">
				<v:userDefs>
					<v:ud v:nameU="msvDisableCustomConnectionPoints" v:prompt="" v:val="VT0(1):5"/>
				</v:userDefs>
				<title>e8071740-76d7-444d-a08a-6a2072b</title>
				<g id="shape4720-31" v:mID="4720" v:groupContext="shape" transform="translate(17.2098,2.84217E-14)">
					<title>Sheet.4720</title>
					<v:userDefs>
						<v:ud v:nameU="msvDisableCustomConnectionPoints" v:prompt="" v:val="VT0(1):5"/>
					</v:userDefs>
					<path d="M90.81 167.95 L108.71 167.95 C118.23 167.95 125.94 182.74 125.94 200.93 L125.94 201.38 C125.8 219.43
								 118.14 233.9 108.71 233.9 L90.81 233.9 C100.36 233.9 108.05 219.14 108.05 200.92 C108.05 182.7 100.34
								 167.95 90.81 167.95 ZM30.14 177.6 C29.9 177.1 29.58 176.61 29.27 176.11 C26.24 171.04 22.27 167.95
								 17.89 167.95 L0 167.95 C4.37 167.95 8.35 171.04 11.37 176.11 A99.0118 68.622 0 0 1 17.26 200.93
								 A97.3258 67.4535 0 0 1 11.37 225.73 C8.35 230.85 4.37 233.94 0 233.94 L17.89 233.94 C22.27 233.94
								 26.16 230.91 29.19 225.84 A97.4531 67.5417 -180 0 0 35.15 201.37 L35.15 200.93 A103.473 71.7142
								 -180 0 0 30.14 177.6 Z" class="st11"/>
				</g>
				<g id="shape4721-35" v:mID="4721" v:groupContext="shape">
					<title>Sheet.4721</title>
					<v:userDefs>
						<v:ud v:nameU="msvDisableCustomConnectionPoints" v:prompt="" v:val="VT0(1):5"/>
					</v:userDefs>
					<path d="M125.29 200.93 C125.29 219.17 117.57 233.94 108.03 233.94 C103.66 233.94 99.68 230.85 96.66 225.73 L108.03
								 225.73 C113.99 225.73 118.77 214.65 118.77 200.93 C118.77 187.2 113.99 176.12 108.03 176.12 L96.66
								 176.12 C99.68 171.05 103.66 167.96 108.03 167.96 C117.57 167.95 125.29 182.74 125.29 200.93 ZM17.24
								 167.95 C7.71 167.95 0 182.7 0 200.93 C0 219.15 7.72 233.9 17.24 233.9 C26.76 233.9 34.46 219.11
								 34.46 200.93 C34.46 182.74 26.75 167.95 17.24 167.95 Z" class="st12"/>
				</g>
				<g id="shape4722-37" v:mID="4722" v:groupContext="shape" transform="translate(6.48945,-8.2126)">
					<title>Sheet.4722</title>
					<v:userDefs>
						<v:ud v:nameU="msvDisableCustomConnectionPoints" v:prompt="" v:val="VT0(1):5"/>
					</v:userDefs>
					<path d="M10.75 184.33 C16.72 184.33 21.5 195.45 21.5 209.14 C21.5 222.83 16.72 233.94 10.75 233.94 C4.78 233.94
								 0 222.84 0 209.14 C0 195.44 4.81 184.33 10.75 184.33 Z" class="st13"/>
				</g>
				<g id="shape4723-39" v:mID="4723" v:groupContext="shape" transform="translate(46.3964,-8.10236)">
					<title>Sheet.4723</title>
					<v:userDefs>
						<v:ud v:nameU="msvDisableCustomConnectionPoints" v:prompt="" v:val="VT0(1):5"/>
					</v:userDefs>
					<path d="M72.37 209.03 C72.37 222.75 67.6 233.83 61.63 233.83 L41.35 233.83 L41.35 233.94 L0 233.94 A97.4531
								 67.5417 -180 0 0 5.96 209.47 L5.96 209.03 A103.473 71.7142 -180 0 0 0.95 185.71 C0.72 185.22 0.4
								 184.72 0.08 184.22 L61.63 184.22 C67.6 184.22 72.37 195.35 72.37 209.03 Z" class="st14"/>
				</g>
			</g>
		</g>
		<g id="group4724-43" transform="translate(16.5842,-57.8612)" v:mID="4724" v:groupContext="group">
			<v:userDefs>
				<v:ud v:nameU="visNavOrder" v:val="VT0(623000):26"/>
			</v:userDefs>
			<title>Icon-web-42.4724</title>
			<g id="shape4725-44" v:mID="4725" v:groupContext="shape">
				<title>Sheet.4725</title>
				<path d="M29.37 210.45 A10.412 10.412 -180 0 0 18.74 200.34 A10.7341 10.7341 -180 0 0 8.54 207.41 A9.8968 9.8968
							 -180 0 0 -0 217.13 A10.0256 10.0256 -180 0 0 10.28 226.79 A6.44043 6.44043 -180 0 0 11.18 226.79 L13.76
							 226.79 A3.15581 3.15581 0 0 1 13.52 225.59 A3.24169 3.24169 0 0 1 13.95 224.02 L10.95 224.02 L10.28
							 224.02 A7.32063 7.32063 0 0 1 2.73 217.13 A7.14888 7.14888 0 0 1 8.97 210.11 L10.61 209.85 L11.14 208.29
							 A8.00761 8.00761 0 0 1 18.74 203.07 A7.72852 7.72852 0 0 1 26.64 210.48 L26.64 212.84 L28.98 213.16
							 A5.56024 5.56024 0 0 1 33.83 218.51 A5.64611 5.64611 0 0 1 28.21 223.96 L27.89 223.96 L27.72 223.96
							 L25.57 223.96 A8.4155 8.4155 -180 0 0 17.26 217.13 A1.37396 1.37396 -180 1 0 17.26 219.86 A5.68905 5.68905
							 0 0 1 17.26 231.21 A1.37396 1.37396 -180 1 0 17.26 233.94 A8.4155 8.4155 -180 0 0 25.57 226.77 L27.82
							 226.77 A1.37396 1.37396 -180 0 0 28.25 226.77 A8.39403 8.39403 -180 0 0 36.5 218.51 A8.28669 8.28669
							 -180 0 0 29.37 210.45 Z" class="st15"/>
			</g>
			<g id="shape4726-48" v:mID="4726" v:groupContext="shape" transform="translate(13.5249,-5.06647)">
				<title>Sheet.4726</title>
				<path d="M0 230.63 A3.30617 3.30617 -180 0 0 3.31 233.94 L3.39 233.94 A3.30617 3.30617 -180 0 0 6.7 230.63 L6.7 230.55
							 A3.30617 3.30617 -180 0 0 3.39 227.24 L3.31 227.24 A3.30617 3.30617 -180 0 0 0 230.55 L0 230.63 Z"
						class="st16"/>
			</g>
		</g>
		<g id="shape4727-52" v:mID="4727" v:groupContext="shape" transform="translate(53.5651,-68.7816)">
			<title>Arrow.4727</title>
			<v:userDefs>
				<v:ud v:nameU="visNavOrder" v:prompt="" v:val="VT0(620000):26"/>
			</v:userDefs>
			<path d="M0 233.94 L135.21 233.94" class="st17"/>
		</g>
		<g id="shape4729-58" v:mID="4729" v:groupContext="shape" transform="translate(190.138,-3.58465)">
			<title>Sheet.4729</title>
			<desc>Azure Monitor pipeline</desc>
			<v:userDefs>
				<v:ud v:nameU="visNavOrder" v:val="VT0(624000):26"/>
			</v:userDefs>
			<v:textBlock v:margins="rect(4,4,4,4)" v:tabSpace="42.5197"/>
			<v:textRect cx="62.3622" cy="221.185" width="124.73" height="25.5118"/>
			<rect x="0" y="208.429" width="124.724" height="25.5118" class="st19"/>
			<text x="5.93" y="224.79" class="st20" v:langID="1033"><v:paragraph v:horizAlign="1"/><v:tabList/>Azure Monitor pipeline</text>		</g>
		<g id="shape4730-61" v:mID="4730" v:groupContext="shape" transform="translate(258.991,-176.925)">
			<title>Sheet.4730</title>
			<desc>DCR</desc>
			<v:userDefs>
				<v:ud v:nameU="visNavOrder" v:val="VT0(625000):26"/>
			</v:userDefs>
			<v:textBlock v:margins="rect(4,4,4,4)" v:tabSpace="42.5197"/>
			<v:textRect cx="29.7638" cy="221.185" width="59.53" height="25.5118"/>
			<rect x="0" y="208.429" width="59.5276" height="25.5118" class="st19"/>
			<text x="19.62" y="224.79" class="st20" v:langID="1033"><v:paragraph v:horizAlign="1"/><v:tabList/>DCR</text>		</g>
		<g id="shape4731-64" v:mID="4731" v:groupContext="shape" transform="translate(485.166,70.3081) rotate(90)">
			<title>Arrow.4731</title>
			<v:userDefs>
				<v:ud v:nameU="visNavOrder" v:prompt="" v:val="VT0(626000):26"/>
			</v:userDefs>
			<path d="M0 233.94 L56.35 233.94" class="st21"/>
		</g>
		<g id="shape4732-69" v:mID="4732" v:groupContext="shape" transform="translate(225.004,-48.939)">
			<title>Sheet.4732</title>
			<desc>Transformation</desc>
			<v:userDefs>
				<v:ud v:nameU="visNavOrder" v:val="VT0(627000):26"/>
			</v:userDefs>
			<v:textBlock v:margins="rect(4,4,4,4)" v:tabSpace="42.5197"/>
			<v:textRect cx="37.8426" cy="226.2" width="75.69" height="15.4811"/>
			<rect x="0" y="218.46" width="75.6852" height="15.4811" class="st19"/>
			<text x="9.46" y="228.9" class="st22" v:langID="1033"><v:paragraph v:horizAlign="1"/><v:tabList/>Transformation</text>		</g>
		<g id="group4733-72" transform="translate(250.091,-63.5054)" v:mID="4733" v:groupContext="group">
			<v:userDefs>
				<v:ud v:nameU="visNavOrder" v:val="VT0(628000):26"/>
			</v:userDefs>
			<title>Sheet.4733</title>
			<g id="shape4734-73" v:mID="4734" v:groupContext="shape">
				<title>Sheet.4734</title>
				<path d="M11.82 233.81 L12.6 231.28 L14.07 230.44 L16.64 231.61 L18.32 229.92 L18.32 229.72 L17.16 227.45 L17.87
							 225.83 L20.44 224.92 L20.69 224.92 L20.69 222.59 L20.37 222.59 L17.8 221.81 L16.97 220.32 L18.06 217.66
							 L16.39 216.04 L16.19 216.04 L13.95 217.21 L12.4 216.23 L11.44 213.18 L9.06 213.18 L9.06 213.51 L8.29
							 216.04 L6.68 216.75 L3.92 215.45 L2.25 217.21 L2.38 217.53 L3.6 219.93 L2.96 221.55 L0 222.52 L0 224.92
							 L0.32 224.92 L2.83 225.7 L3.53 227.32 L2.31 230.11 L3.98 231.8 L4.24 231.67 L6.62 230.44 L8.23 231.09
							 L9.32 233.94 L11.63 233.94 L11.82 233.81 ZM8.03 226.16 C6.68 224.86 6.68 222.65 7.97 221.29 C9.25 219.93
							 11.44 219.93 12.79 221.23 C14.14 222.52 14.14 224.79 12.85 226.16 C11.89 227.13 10.41 227.45 9.13 226.94
							 C8.74 226.74 8.35 226.48 8.03 226.16 Z" class="st23"/>
			</g>
		</g>
		<g id="shape4736-77" v:mID="4736" v:groupContext="shape" v:layerMember="0" transform="translate(54.5686,-76.7188)">
			<title>Dynamic connector.4736</title>
			<v:userDefs>
				<v:ud v:nameU="visNavOrder" v:val="VT0(630000):26"/>
			</v:userDefs>
			<path d="M0 233.94 L74.98 233.94 A5.66929 5.66929 -180 0 0 80.65 228.27 L80.65 131.33 A5.66929 5.66929 0 0 1 86.32 125.66
						 L165.39 125.66" class="st21"/>
		</g>
		<g id="group4737-82" transform="translate(394.819,-52.9055)" v:mID="4737" v:groupContext="group">
			<v:userDefs>
				<v:ud v:nameU="visNavOrder" v:prompt="" v:val="VT0(631000):26"/>
			</v:userDefs>
			<title>Sheet.4737</title>
			<g id="group4738-83" v:mID="4738" v:groupContext="group">
				<title>Sheet.4738</title>
				<g id="shape4739-84" v:mID="4739" v:groupContext="shape">
					<title>Sheet.4739</title>
					<path d="M12.37 210.05 C5.56 210.03 0.05 208.01 0.06 205.53 L0 229.4 C0 231.86 5.41 233.87 12.14 233.92 L12.31
								 233.92 C19.11 233.94 24.63 231.95 24.64 229.47 L24.7 205.59 C24.69 208.07 19.17 210.07 12.37 210.05
								 Z" class="st24"/>
				</g>
				<g id="shape4740-88" v:mID="4740" v:groupContext="shape" transform="translate(0.0548606,-23.8765)">
					<title>Sheet.4740</title>
					<path d="M24.65 229.47 C24.65 231.95 19.12 233.94 12.32 233.93 C5.51 233.91 0 231.89 0.01 229.41 C0.01 226.93
								 5.53 224.93 12.34 224.95 C19.14 224.97 24.65 226.98 24.64 229.47 L24.65 229.47 Z" class="st25"/>
					<path d="M24.65 229.47 C24.65 231.95 19.12 233.94 12.32 233.93 C5.51 233.91 0 231.89 0.01 229.41 C0.01 226.93
								 5.53 224.93 12.34 224.95 C19.14 224.97 24.65 226.98 24.64 229.47" class="st26"/>
				</g>
				<g id="shape4741-91" v:mID="4741" v:groupContext="shape" transform="translate(2.93199,-25.8718)">
					<title>Sheet.4741</title>
					<path d="M18.89 231.1 C18.89 232.67 14.65 233.94 9.44 233.92 C4.23 233.91 0 232.62 0 231.05 C0.01 229.47 4.24
								 228.2 9.45 228.22 C14.67 228.23 18.89 229.52 18.89 231.1 Z" class="st27"/>
				</g>
				<g id="shape4742-93" v:mID="4742" v:groupContext="shape" transform="translate(4.89478,-25.8881)">
					<title>Sheet.4742</title>
					<path d="M7.48 231.74 A22.7184 22.7184 -180 0 0 -0 232.81 A21.9442 21.9442 -180 0 0 7.48 233.94 A21.9727 21.9727
								 -180 0 0 14.96 232.86 A22.7082 22.7082 -180 0 0 7.48 231.74 Z" class="st28"/>
				</g>
			</g>
			<g id="group4743-95" transform="translate(2.2988,-1.10257)" v:mID="4743" v:groupContext="group">
				<title>Sheet.4743</title>
				<g id="group4744-96" transform="translate(0,-1.40768)" v:mID="4744" v:groupContext="group">
					<title>Icon-manage-307.6608</title>
					<g id="shape4745-97" v:mID="4745" v:groupContext="shape">
						<title>Sheet.4745</title>
						<path d="M6.21 228.62 L11.53 228.62 L11.53 233.94 L6.21 233.94 L6.21 228.62 ZM0.74 233.94 L5.32 233.94 L5.32
									 228.62 L0 228.62 L0 233.2 a0.73885 0.73885 -180 0 0 0.73885 0.73885 ZM0 227.78 L5.32 227.78
									 L5.32 222.41 L0 222.41 L0 227.78 Z" class="st29"/>
					</g>
					<g id="shape4746-101" v:mID="4746" v:groupContext="shape" transform="translate(6.15708,-6.09551)">
						<title>Sheet.4746</title>
						<path d="M7.33 219.23 A7.25304 7.25304 0 0 1 14.65 226.61 A7.25304 7.25304 0 0 1 7.33 233.94 L0 233.94 L0
									 226.55 A7.25304 7.25304 0 0 1 7.33 219.23 Z" class="st30"/>
					</g>
					<g id="shape4747-105" v:mID="4747" v:groupContext="shape" transform="translate(8.66917,-9.50653)">
						<title>Sheet.4747</title>
						<rect x="0" y="228.917" width="1.67473" height="5.02418" class="st31"/>
					</g>
					<g id="shape4748-107" v:mID="4748" v:groupContext="shape" transform="translate(12.0186,-9.50653)">
						<title>Sheet.4748</title>
						<rect x="0" y="230.592" width="1.67473" height="3.34945" class="st31"/>
					</g>
					<g id="shape4749-109" v:mID="4749" v:groupContext="shape" transform="translate(15.3681,-9.50653)">
						<title>Sheet.4749</title>
						<rect x="0" y="227.242" width="1.67473" height="6.6989" class="st31"/>
					</g>
				</g>
			</g>
		</g>
		<g id="shape4750-111" v:mID="4750" v:groupContext="shape" transform="translate(324.885,-69.3473)">
			<title>Arrow.4750</title>
			<v:userDefs>
				<v:ud v:nameU="visNavOrder" v:prompt="" v:val="VT0(632000):26"/>
			</v:userDefs>
			<path d="M0 233.94 L49.46 233.94" class="st17"/>
		</g>
		<g id="shape4751-116" v:mID="4751" v:groupContext="shape" transform="translate(421.345,-55.7402)">
			<title>Sheet.4751</title>
			<desc>Log Analytics workspace</desc>
			<v:userDefs>
				<v:ud v:nameU="visNavOrder" v:val="VT0(633000):26"/>
			</v:userDefs>
			<v:textBlock v:margins="rect(4,4,4,4)" v:tabSpace="42.5197"/>
			<v:textRect cx="66.4725" cy="221.185" width="132.95" height="25.5118"/>
			<rect x="0" y="208.429" width="132.945" height="25.5118" class="st19"/>
			<text x="4" y="224.79" class="st20" v:langID="1033"><v:paragraph/><v:tabList/>Log Analytics workspace</text>		</g>
		<g id="shape4752-119" v:mID="4752" v:groupContext="shape" transform="translate(0.375,-22.6474)">
			<title>Sheet.4752</title>
			<desc>Custom application</desc>
			<v:userDefs>
				<v:ud v:nameU="visNavOrder" v:val="VT0(634000):26"/>
			</v:userDefs>
			<v:textBlock v:margins="rect(4,4,4,4)" v:tabSpace="42.5197"/>
			<v:textRect cx="34.4571" cy="221.185" width="68.92" height="25.5118"/>
			<rect x="0" y="208.429" width="68.9141" height="25.5118" class="st19"/>
			<text x="15.79" y="217.59" class="st20" v:langID="1033"><v:paragraph v:horizAlign="1"/><v:tabList/>Custom <tspan
						x="7.41" dy="1.2em" class="st32">application</tspan></text>		</g>
		<g id="shape4753-123" v:mID="4753" v:groupContext="shape" transform="translate(93.4447,-46.1368)">
			<title>Sheet.4753</title>
			<desc>REST API</desc>
			<v:userDefs>
				<v:ud v:nameU="visNavOrder" v:val="VT0(635000):26"/>
			</v:userDefs>
			<v:textBlock v:margins="rect(4,4,4,4)" v:tabSpace="42.5197"/>
			<v:textRect cx="34.4571" cy="221.185" width="68.92" height="25.5118"/>
			<rect x="0" y="208.429" width="68.9141" height="25.5118" class="st19"/>
			<text x="13.15" y="224.79" class="st20" v:langID="1033"><v:paragraph v:horizAlign="1"/><v:tabList/>REST API</text>		</g>
	</g>
</svg>
