<svg xmlns="http://www.w3.org/2000/svg" width="20" height="20" viewBox="0 0 16 16"><defs><linearGradient id="424431ec-5b2f-46d8-bc5f-b2aa4dac8024" x1="7.5" y1="2" x2="7.5" y2="14" gradientUnits="userSpaceOnUse"><stop stop-color="#F0BE82"></stop><stop offset="1" stop-color="#BF7A29"></stop></linearGradient></defs><g><title></title><rect x="2" y="2" width="11" height="12" rx="2" fill="url(#424431ec-5b2f-46d8-bc5f-b2aa4dac8024)"></rect><path opacity=".6" fill-rule="evenodd" clip-rule="evenodd" d="M3.917 5a1 1 0 0 1 1-1h5.166a1 1 0 0 1 0 2H4.917a1 1 0 0 1-1-1Zm0 3a1 1 0 0 1 1-1h5.166a1 1 0 0 1 0 2H4.917a1 1 0 0 1-1-1Z" fill="#FFE3BC"></path><defs></defs></g></svg>
