<svg xmlns="http://www.w3.org/2000/svg" viewBox="0 0 16 16" width="16" height="16"><g><circle cx="8" cy="8" r="8" fill="#7a7a7a"/><path d="M10.667 5.636c0 .8-.427 1.547-1.227 2.24-.32.267-.587.48-.693.693-.107.16-.16.427-.16.693v.32H7.093v-.48c0-.693.267-1.28.853-1.76.374-.266.587-.533.694-.693s.213-.427.213-.693-.106-.427-.266-.587a.97.97 0 0 0-.747-.32c-.64 0-1.227.267-1.813.747V4.089c.587-.373 1.28-.533 2.027-.533.8 0 1.493.213 1.92.587.479.319.693.853.693 1.493m-1.778 5.991c0 .267-.107.533-.32.693s-.48.267-.747.267c-.32 0-.533-.107-.747-.267s-.32-.427-.32-.693c0-.267.107-.533.32-.693.212-.16.48-.267.8-.267s.587.107.747.267c.16.159.267.426.267.693" fill="#ffffff"/></g></svg>
